<?xml version="1.0" encoding="UTF-8"?>
<svg width="22px" height="40px" viewBox="0 0 22 40" version="1.1" xmlns="http://www.w3.org/2000/svg" xmlns:xlink="http://www.w3.org/1999/xlink">
    <title>regular-marker</title>
    <g id="Page-1" stroke="none" stroke-width="1" fill="none" fill-rule="evenodd">
        <g id="regular-marker">
            <path d="M11,0.5 C13.8983664,0.5 16.5218924,1.6991754 18.4211307,3.63655825 C20.3239167,5.57756007 21.5,8.25925552 21.5,11.2209255 C21.5,13.7151662 19.9923362,16.2464434 18.1180641,19.472526 C15.6612221,23.7013542 12.5462132,29.0716053 10.9997525,36.9185286 C9.45346345,29.0708003 6.33865773,23.7009763 3.88194121,19.4724245 C2.00766999,16.2463898 0.5,13.7151401 0.5,11.2209255 C0.5,8.25928182 1.67611542,5.57760887 3.57889689,3.63661168 C5.47816423,1.6991992 8.10170952,0.5 11,0.5 Z" id="Path" stroke="#FFFFFF" fill="#EA4336"></path>
            <path d="M10.9998529,15 C8.79046498,15 7,13.2092737 7,11.0000736 C7,8.79087348 8.79046498,7 10.9998529,7 C13.2090936,7 15,8.79087348 15,11.0000736 C15,13.2092737 13.2090936,15 10.9998529,15 L10.9998529,15 Z" id="Path" fill="#81130F"></path>
        </g>
    </g>
</svg>