<?xml version="1.0" encoding="UTF-8"?>
<svg width="36px" height="64px" viewBox="0 0 36 64" version="1.1" xmlns="http://www.w3.org/2000/svg" xmlns:xlink="http://www.w3.org/1999/xlink">
    <title>selected-marker</title>
    <g id="Page-1" stroke="none" stroke-width="1" fill="none" fill-rule="evenodd">
        <g id="selected-marker">
            <path d="M17.6,0.5 C22.3209,0.5 26.5944318,2.45274038 29.6880396,5.60848061 C32.7851857,8.76783024 34.7,13.1326586 34.7,17.9534808 C34.7,21.9868178 32.2813686,26.0860939 29.2483021,31.3067461 C25.1676444,38.3305601 19.9456115,47.3282435 17.5998619,60.7108903 C15.2545612,47.3281351 10.0324358,38.3304205 5.95170731,31.3065855 C2.91864149,26.0860093 0.5,21.9867764 0.5,17.9534808 C0.5,13.1327012 2.41486541,8.76790857 5.51200451,5.6085661 C8.60565982,2.4527774 12.8792239,0.5 17.6,0.5 Z" id="Path" stroke="#FFFFFF" fill="#EA4336"></path>
            <path d="M17.5997057,25.6 C13.18093,25.6 9.6,22.0185473 9.6,17.6001471 C9.6,13.181747 13.18093,9.6 17.5997057,9.6 C22.0181872,9.6 25.6,13.181747 25.6,17.6001471 C25.6,22.0185473 22.0181872,25.6 17.5997057,25.6 L17.5997057,25.6 Z" id="Path" fill="#F9F9F9"></path>
        </g>
    </g>
</svg>